<svg xmlns="http://www.w3.org/2000/svg" width="560" height="360" viewBox="0 0 560 360">
  <rect width="100%" height="100%" fill="white"/>
  <line x1="70" y1="305" x2="535" y2="305" stroke="#333"/>
  <line x1="70" y1="25" x2="70" y2="305" stroke="#333"/>
  <polyline points="70.00,295.67 77.71,286.33 79.58,277.00 80.20,267.67 82.14,258.33 82.98,249.00 83.36,239.67 85.69,230.33 86.11,221.00 89.37,211.67 90.50,202.33 93.41,193.00 96.38,183.67 96.68,174.33 98.87,165.00 99.15,155.67 100.65,146.33 100.79,137.00 102.69,127.67 106.61,118.33 106.95,109.00 109.29,99.67 113.72,90.33 114.59,81.00 132.32,71.67 137.65,62.33 201.54,53.00 235.25,43.67 315.87,34.33 535.00,25.00" fill="none" stroke="#1f77b4" stroke-width="3"/>
  <text x="302" y="345" text-anchor="middle" font-family="Arial" font-size="14">Per-video J&amp;F drop: S - S/2</text>
  <text x="18" y="165" text-anchor="middle" font-family="Arial" font-size="14" transform="rotate(-90 18 165)">CDF</text>
  <text x="70" y="327" text-anchor="middle" font-family="Arial" font-size="12">-0.003</text>
  <text x="535" y="327" text-anchor="middle" font-family="Arial" font-size="12">0.069</text>
  <text x="60" y="309" text-anchor="end" font-family="Arial" font-size="12">0</text>
  <text x="60" y="29" text-anchor="end" font-family="Arial" font-size="12">1</text>
</svg>
